<?xml version="1.0" encoding="utf-8"?>
<!-- Generator: Adobe Illustrator 24.1.2, SVG Export Plug-In . SVG Version: 6.00 Build 0)  -->
<svg version="1.2" baseProfile="tiny" id="Camada_1"
	 xmlns="http://www.w3.org/2000/svg" xmlns:xlink="http://www.w3.org/1999/xlink" x="0px" y="0px" viewBox="0 0 419.02 419.02"
	 overflow="visible" xml:space="preserve">
<g>
	<path fill="#4F46E5" d="M357.8,419.02H61.22C27.41,419.02,0,391.62,0,357.8V61.22C0,27.41,27.41,0,61.22,0H357.8
		c33.81,0,61.22,27.41,61.22,61.22V357.8C419.02,391.62,391.62,419.02,357.8,419.02z"/>
	<g>
		<g>
			<path fill="#EFF6FF" d="M85.36,232.62c-6.12-3.14-10.38-8.21-14.12-13.77c-4.51-6.69-7.2-14.16-9.07-21.95
				c-0.33-1.36-0.11-2.21,1.28-2.9c8.26-4.19,16.23-8.91,23.97-13.94c6.05-3.93,11.95-8.2,16.97-13.52c2.51-2.64,3.6-6.21,6.43-8.7
				c11.37-10.07,24.59-16.58,39.04-20.8c11.36-3.32,22.97-4.98,34.8-5.26c0.84-0.02,1.68,0,2.51,0c0.2,0.26,0.4,0.52,0.59,0.78
				c-3.75,3.35-7.51,6.69-11.69,10.43c3.38,0.65,5.35-0.67,7.41-1.42c19.41-7.15,39.37-11.28,60.12-11.23
				c1.56,0,3.12,0.22,4.67,0.15c1.74-0.07,2,0.69,1.72,2.21c-1.86,9.75-5.65,18.64-11.56,26.67c-4.1,5.57-9.3,9.88-14.86,13.89
				c3.02-0.52,5.67-1.94,8.06-3.68c6.59-4.79,13.49-9.17,19.36-14.91c0.83-0.81,1.59-1.01,2.75-0.49
				c21.3,9.52,40.88,21.77,58.55,37.01c14.79,12.75,27.42,27.32,36.86,44.51c3.04,5.53,5.68,11.25,7.84,17.44
				c-1.11,0.11-1.75-0.57-2.4-0.95c-22.14-13.46-46.37-20.04-71.97-22.2c-16.15-1.37-32.35-1.31-48.52-1.7
				c-20.2-0.48-40.27-1.94-59.73-8.05c-17.56-5.51-33.35-14.27-47.48-25.97c-2.15-1.78-4.37-2.51-7.02-2.78
				c-16.1-1.64-31.52,1.52-46.68,6.54c-1.3,0.43-2.6,0.81-3.98,1.06c5.46-3.88,11.41-6.84,17.53-9.42
				c9.33-3.94,18.99-6.46,29.2-6.35c1.73,0.02,3.52,0,5.16,0.44c2.44,0.65,4.07-0.28,5.79-1.84c4.77-4.33,7.88-9.62,9.27-15.85
				c0.41-1.84,1.35-2.81,2.91-3.6c3.93-1.95,8.09-3.01,12.38-3.68c1.09-0.17,2.19-0.36,3.25-0.75c-11.12-1.84-22.15-2.46-32.67,2.75
				c-2.65,1.31-4.56,3.14-4.54,6.33c0.01,3.14,1.42,5.48,4.15,6.99c0.95,0.52,2.02,0.8,3.09,1.21c-4.85,2.4-12.01-1.15-11.38-8.2
				c0.06-0.68,1.41-1.98-0.77-2.26c-1.64-0.21-2.56-0.09-3.01,1.69c-0.83,3.25,0.69,5.49,3.19,7.73c-5.15,2.51-9.99,5.2-15.09,7.22
				c-2.99,1.19-5.56,2.99-8.38,4.37c-6.98,3.43-13.78,7.22-20.75,10.67c-2.19,1.09-2.46,2.44-2.01,4.54
				c1.69,8.07,5.84,14.9,10.58,21.47c2.53,3.52,5.68,6.48,8.48,9.75C85.51,232.44,85.44,232.54,85.36,232.62z M153.68,187.36
				c1.56,0.9,3.09,1.84,4.65,2.72c17.37,9.63,36.36,13.46,55.84,15.46c17.81,1.84,35.74,2.19,53.55,4.15
				c18.6,2.05,36.58,6.17,53.12,15.56c-16.95-20.6-35.93-38.54-62-47.21c0.59,0.98,1.3,1.8,2.07,2.56c1.94,1.86,3.73,3.85,5.01,6.23
				c1.88,3.51,0.83,6.05-3.01,7.12c-1.32,0.37-2.72,0.52-4.09,0.67c-9.3,0.98-18.62,1.57-27.96,1.85
				C204.74,197.24,178.83,196.14,153.68,187.36z M157.24,178.36c11.43-2.38,22.35-2.84,33.22-2.35c5.98,0.27,11.01-1.4,15.89-4.36
				c1.85-1.12,3.72-2.22,5.48-3.47c9.44-6.62,17.16-14.73,21.91-25.41c0.79-1.77,0.44-2.25-1.47-2.01
				c-4.73,0.56-9.47,0.95-14.2,1.49c-10.25,1.2-20.38,2.88-29.94,7.02c-3.74,1.63-7.37,3.47-10.35,6.54c3.05,0,6.09,0,9.14,0
				C175.03,160.36,166.1,168.64,157.24,178.36z"/>
			<path fill="#EFF6FF" d="M94.31,254.76c5.22,3.37,10.31,5.56,16.01,6.27c10.01,1.26,19.67-3.23,24.32-11.49
				c4.89-8.69,4.21-18.64-2.04-26.23c-4.9-5.95-11.64-8.81-18.96-10.43c-7.68-1.7-15.46-1.69-23.26-1.12
				c-1.63,0.12-1.68,0.89-1.64,2.2c0.3,8.79,3.28,16.02,11.65,20.23c-5.65-0.17-10.2-2.72-14.11-6.35
				c-6.85-6.36-11.07-14.27-13.32-23.31c-0.52-2.05,0.11-2.78,2.12-2.95c26.93-2.35,53.13-0.09,77.52,12.73
				c19.69,10.35,32.73,26.46,39.67,47.55c0.07,0.23,0.09,0.51,0.22,1.27c-9.95-4.28-19.62-8.46-29.58-12.75
				c0.11,2.35,1.41,3.77,2.46,5.21c7.41,10.17,17.79,15.93,29.52,19.56c14.2,4.39,28.78,4.78,43.46,3.93
				c0.41-0.02,0.81-0.06,1.26,0.07c-5.16,2.56-10.65,3.79-16.35,4.31c-12.06,1.1-23.8-1.04-35.52-3.46
				c-10.39-2.15-20.7-4.69-31.42-4.91c-11.75-0.23-21.73,3.49-29.48,12.56c-0.59,0.69-1.12,1.4-2.15,0.84
				c-6.63-3.62-14.11-5.74-19.53-11.52C99.4,270.81,95.34,263.89,94.31,254.76z"/>
			<path fill="#EFF6FF" d="M255.59,271.72c-16.07,0.02-31.38-2.8-44.85-12.16c-9.19-6.38-15.86-14.75-19.9-25.88
				c2.78,1.84,5,3.53,7.42,4.88c8.94,5.01,18.75,6.8,28.83,7.38c15.94,0.9,31.84-0.38,47.76-0.63c13.1-0.2,26.14,0.37,38.86,3.89
				c16.58,4.59,29.15,14.35,37.75,29.22c0.56,0.95,0.91,2.01,1.38,3.04c-0.01,0.01-0.04,0.05-0.07,0.09
				c-0.02-0.07-0.04-0.2-0.06-0.2c-3.05-0.6-5.21-2.86-7.84-4.26c-11.68-6.15-24.25-9.59-37.04-12.35
				c-5.06-1.09-10.15-2.11-16.15-2.77c7.91,7.3,12.99,15.7,17.78,24.88c-22.68-17.86-49.32-23.56-76.34-28.36
				C239.2,265.39,247.69,267.98,255.59,271.72z"/>
			<path fill="#EFF6FF" d="M85.57,232.33c0.32,0.14,0.96,0.15,0.65,0.63c-0.25,0.41-0.67,0.04-0.88-0.33
				C85.44,232.54,85.51,232.44,85.57,232.33z"/>
		</g>
	</g>
</g>
</svg>
